<?xml version="1.0" encoding="UTF-8" standalone="no"?>
<!-- Generator: Adobe Illustrator 16.0.0, SVG Export Plug-In . SVG Version: 6.00 Build 0)  -->

<svg
   xmlns:dc="http://purl.org/dc/elements/1.1/"
   xmlns:cc="http://creativecommons.org/ns#"
   xmlns:rdf="http://www.w3.org/1999/02/22-rdf-syntax-ns#"
   xmlns:svg="http://www.w3.org/2000/svg"
   xmlns="http://www.w3.org/2000/svg"
   xmlns:sodipodi="http://sodipodi.sourceforge.net/DTD/sodipodi-0.dtd"
   xmlns:inkscape="http://www.inkscape.org/namespaces/inkscape"
   version="1.1"
   id="ModelisationFresque01_xA0_Image_1_"
   x="0px"
   y="0px"
   width="653.44061"
   height="151.97057"
   viewBox="0 0 653.44061 151.97057"
   enable-background="new 0 0 800 600"
   xml:space="preserve"
   inkscape:version="0.91 r13725"
   sodipodi:docname="fresque.svg"><metadata
     id="metadata18"><rdf:RDF><cc:Work
         rdf:about=""><dc:format>image/svg+xml</dc:format><dc:type
           rdf:resource="http://purl.org/dc/dcmitype/StillImage" /><dc:title></dc:title></cc:Work></rdf:RDF></metadata><defs
     id="defs16" /><sodipodi:namedview
     pagecolor="#000000"
     bordercolor="#666666"
     borderopacity="1"
     objecttolerance="10"
     gridtolerance="10"
     guidetolerance="10"
     inkscape:pageopacity="0"
     inkscape:pageshadow="2"
     inkscape:window-width="1440"
     inkscape:window-height="809"
     id="namedview14"
     showgrid="false"
     inkscape:zoom="1.1125147"
     inkscape:cx="250.59132"
     inkscape:cy="136.99887"
     inkscape:window-x="0"
     inkscape:window-y="0"
     inkscape:window-maximized="1"
     inkscape:current-layer="ModelisationFresque01_xA0_Image_1_"
     fit-margin-top="0"
     fit-margin-left="0"
     fit-margin-right="0"
     fit-margin-bottom="0" /><polyline
     stroke-miterlimit="10"
     points="37.333,285 37.333,302.667 158.333,302.667 37.333,355.667   37.333,304.334 "
     id="polyline4"
     style="fill:none;stroke:#ffffff;stroke-miterlimit:10"
     transform="translate(-36.364407,-216.86243)" /><polyline
     stroke-miterlimit="10"
     points="37.333,368.333 158.333,368.333 158.333,357.334   262,357.334 334.5,313 382,313 382,296 366.75,296 366.5,311.5 "
     id="polyline6"
     style="fill:none;stroke:#ffffff;stroke-miterlimit:10"
     transform="translate(-36.364407,-216.86243)" /><polygon
     stroke-miterlimit="10"
     points="174.75,297.5 261,341.75 333.75,298.25 261,259 "
     id="polygon8"
     style="fill:none;stroke:#ffffff;stroke-miterlimit:10"
     transform="translate(-36.364407,-216.86243)" /><line
     stroke-miterlimit="10"
     x1="224.63559"
     y1="1.4705644"
     x2="224.63559"
     y2="151.47058"
     id="line10"
     style="fill:none;stroke:#ffffff;stroke-miterlimit:10" /><polyline
     stroke-miterlimit="10"
     points="75.75,218.333 138.75,218.333 138.75,259 138.75,285   90.75,285 56,285 56,218.333 37.333,218.333 37.333,285 158.333,285 158.333,303.667 261,357.334 "
     id="polyline12"
     style="fill:none;stroke:#ffffff;stroke-miterlimit:10"
     transform="translate(-36.364407,-216.86243)" /><path
     style="fill:none;fill-rule:evenodd;stroke:#ffffff;stroke-width:1px;stroke-linecap:butt;stroke-linejoin:miter;stroke-opacity:1"
     d="m 298.59322,96.485032 0,54.343218 -177.01271,0.63559 0.31779,-11.44068 L 0.5,139.38757 l 0,12.39407"
     id="path3356"
     inkscape:connector-curvature="0" /><path
     style="fill:none;fill-rule:evenodd;stroke:#ffffff;stroke-width:1px;stroke-linecap:butt;stroke-linejoin:miter;stroke-opacity:1"
     d="m 428.57203,42.459602 -82.30932,0.6356 -0.95339,35.91101 43.22034,0.6356 1.27118,67.055078 18.75,-0.63559 0.3178,-35.91102 29.23729,20.02119 0.3178,14.93644 19.38559,-1.58898 -1.27119,-143.00847817"
     id="path4158"
     inkscape:connector-curvature="0" /><path
     style="fill:none;fill-rule:evenodd;stroke:#ffffff;stroke-width:1px;stroke-linecap:butt;stroke-linejoin:miter;stroke-opacity:1"
     d="m 518.50847,102.52316 -90.57203,-60.063558 -9.8517,-0.31779 -0.31779,68.961858 -8.58051,0 -0.95339,-68.644068 -19.70339,0.3178 0.3178,36.86441"
     id="path4160"
     inkscape:connector-curvature="0" /><path
     style="fill:none;fill-rule:evenodd;stroke:#ffffff;stroke-width:1px;stroke-linecap:butt;stroke-linejoin:miter;stroke-opacity:1"
     d="m 428.25423,42.141812 0.6356,68.644058 -10.16949,0.3178"
     id="path4162"
     inkscape:connector-curvature="0" /><path
     style="fill:none;fill-rule:evenodd;stroke:#ffffff;stroke-width:1px;stroke-linecap:butt;stroke-linejoin:miter;stroke-opacity:1"
     d="m 429.20762,111.10367 28.6017,19.38559"
     id="path4164"
     inkscape:connector-curvature="0" /><path
     style="fill:none;fill-rule:evenodd;stroke:#ffffff;stroke-width:1px;stroke-linecap:butt;stroke-linejoin:miter;stroke-opacity:1"
     d="m 19.567796,1.7816418 20.338984,-0.3178 -1.271187,66.7372902 16.207627,-0.3178 0,-26.05932 47.35169,0.3178"
     id="path4166"
     inkscape:connector-curvature="0" /><path
     style="fill:none;fill-rule:evenodd;stroke:#ffffff;stroke-width:1px;stroke-linecap:butt;stroke-linejoin:miter;stroke-opacity:1"
     d="m 55.161017,1.4638418 0.317796,40.3601702 -16.84322,-0.3178"
     id="path4168"
     inkscape:connector-curvature="0" /><path
     style="fill:none;fill-rule:evenodd;stroke:#ffffff;stroke-width:1px;stroke-linecap:butt;stroke-linejoin:miter;stroke-opacity:1"
     d="M 102.83051,1.4638418 330.69068,1.1460418 298.59322,81.230792 243.9322,1.1460418"
     id="path4170"
     inkscape:connector-curvature="0" /><path
     style="fill:none;fill-rule:evenodd;stroke:#ffffff;stroke-width:1px;stroke-linecap:butt;stroke-linejoin:miter;stroke-opacity:1"
     d="m 298.27542,0.82825183 0,79.44915017 -0.3178,16.52542"
     id="path4172"
     inkscape:connector-curvature="0" /><path
     style="fill:none;fill-rule:evenodd;stroke:#ffffff;stroke-width:1px;stroke-linecap:butt;stroke-linejoin:miter;stroke-opacity:1"
     d="m 636.72881,103.79435 -88.02966,-61.016948 -0.3178,-25.42373 -29.87288,20.65678 0,23.83475 -42.90254,-0.3178 0.3178,-60.3813602 -146.18644,0"
     id="path4174"
     inkscape:connector-curvature="0" /><path
     style="fill:none;fill-rule:evenodd;stroke:#ffffff;stroke-width:1px;stroke-linecap:butt;stroke-linejoin:miter;stroke-opacity:1"
     d="m 323.69915,96.485032 0,-78.81356 6.67373,-16.2076302 0,40.9957602 16.20763,0.3178 -0.95339,-41.6313602 24.15254,-0.31778997 87.39407,61.33474017"
     id="path4176"
     inkscape:connector-curvature="0" /><path
     style="fill:none;fill-rule:evenodd;stroke:#ffffff;stroke-width:1px;stroke-linecap:butt;stroke-linejoin:miter;stroke-opacity:1"
     d="m 329.10169,96.485032 0.95339,-55.61441"
     id="path4178"
     inkscape:connector-curvature="0" /><path
     style="fill:none;fill-rule:evenodd;stroke:#ffffff;stroke-width:1px;stroke-linecap:butt;stroke-linejoin:miter;stroke-opacity:1"
     d="m 298.27542,151.14604 47.3517,-4.76694 24.15254,0 0,-50.847458 18.75,-15.57204 0.95339,66.737288 -43.85593,-0.31779 0.63559,-50.529668 24.15254,-0.31779"
     id="path4180"
     inkscape:connector-curvature="0" /><path
     style="fill:none;fill-rule:evenodd;stroke:#ffffff;stroke-width:1px;stroke-linecap:butt;stroke-linejoin:miter;stroke-opacity:1"
     d="m 437.78813,145.10791 -29.23729,1.27119"
     id="path4182"
     inkscape:connector-curvature="0" /><path
     style="fill:none;fill-rule:evenodd;stroke:#ffffff;stroke-width:1px;stroke-linecap:butt;stroke-linejoin:miter;stroke-opacity:1"
     d="m 613.52966,1.4638418 0.3178,41.6313602 38.13559,-0.95339 0.95339,45.44491 -16.84322,18.114408 -87.71187,-1.27119 0.95339,34.95763 -31.14406,0 0.31779,-77.224578 0,-61.33474017 55.29661,-0.3178 -25.10593,16.52542017"
     id="path4184"
     inkscape:connector-curvature="0" /><path
     style="fill:none;fill-rule:evenodd;stroke:#ffffff;stroke-width:1px;stroke-linecap:butt;stroke-linejoin:miter;stroke-opacity:1"
     d="m 518.19068,140.34096 -60.69916,3.49576 7.30933,-0.31779 -0.3178,-76.271188 34.63983,22.56356 -0.95339,52.118638"
     id="path4186"
     inkscape:connector-curvature="0" /><path
     style="fill:none;fill-rule:evenodd;stroke:#ffffff;stroke-width:1px;stroke-linecap:butt;stroke-linejoin:miter;stroke-opacity:1"
     d="m 475.60593,61.209602 -19.0678,0.3178"
     id="path4188"
     inkscape:connector-curvature="0" /><path
     style="fill:none;fill-rule:evenodd;stroke:#ffffff;stroke-width:1px;stroke-linecap:butt;stroke-linejoin:miter;stroke-opacity:1"
     d="m 559.18644,50.404522 0,54.343218 -11.44068,-0.63559 0.95339,-62.605938 44.49153,0.3178 0.31779,-40.3601702 46.08051,-0.95338997 0,41.31356017 12.71187,0 0,-40.6779702 -77.86017,-0.63558997"
     id="path4190"
     inkscape:connector-curvature="0" /><path
     style="fill:none;fill-rule:evenodd;stroke:#ffffff;stroke-width:1px;stroke-linecap:butt;stroke-linejoin:miter;stroke-opacity:1"
     d="m 549.33474,139.38757 87.39407,-5.08475 -0.3178,-30.50847 16.20763,-16.207628 -38.45339,-45.44491 -21.92796,-0.3178"
     id="path4192"
     inkscape:connector-curvature="0" /><path
     style="fill:none;fill-rule:evenodd;stroke:#ffffff;stroke-width:1px;stroke-linecap:butt;stroke-linejoin:miter;stroke-opacity:1"
     d="m 652.93644,87.904522 -0.63559,46.080508 -16.84323,0.31779"
     id="path4194"
     inkscape:connector-curvature="0" /><path
     style="fill:none;fill-rule:evenodd;stroke:#ffffff;stroke-width:1px;stroke-linecap:butt;stroke-linejoin:miter;stroke-opacity:1"
     d="M 475.60593,0.82825183 517.55508,1.4638418"
     id="path4196"
     inkscape:connector-curvature="0" /><path
     style="fill:none;fill-rule:evenodd;stroke:#ffffff;stroke-width:1px;stroke-linecap:butt;stroke-linejoin:miter;stroke-opacity:1"
     d="m 141.60169,41.188422 -20.02118,27.9661 0.63559,-67.3728802 61.97034,0 0.31779,40.6779602 39.40678,-0.95339"
     id="path4198"
     inkscape:connector-curvature="0" /><path
     style="fill:none;fill-rule:evenodd;stroke:#ffffff;stroke-width:1px;stroke-linecap:butt;stroke-linejoin:miter;stroke-opacity:1"
     d="m 138.42373,2.0994318 -0.3178,78.4957702"
     id="path4200"
     inkscape:connector-curvature="0" /><path
     style="fill:none;fill-rule:evenodd;stroke:#ffffff;stroke-width:1px;stroke-linecap:butt;stroke-linejoin:miter;stroke-opacity:1"
     d="m 184.18644,41.506212 -42.90254,0"
     id="path4202"
     inkscape:connector-curvature="0" /><path
     style="fill:none;fill-rule:evenodd;stroke:#ffffff;stroke-width:1px;stroke-linecap:butt;stroke-linejoin:miter;stroke-opacity:1"
     d="m 122.2161,86.315542 15.88983,-6.35594"
     id="path4204"
     inkscape:connector-curvature="0" /></svg>